<mxfile host="Electron" agent="Mozilla/5.0 (Windows NT 10.0; Win64; x64) AppleWebKit/537.36 (KHTML, like Gecko) draw.io/26.0.16 Chrome/132.0.6834.196 Electron/34.2.0 Safari/537.36" version="26.0.16">
  <diagram name="Pagină-1" id="cZPfDZzGAdTG7QexLHvx">
    <mxGraphModel dx="1235" dy="740" grid="1" gridSize="10" guides="1" tooltips="1" connect="1" arrows="1" fold="1" page="1" pageScale="1" pageWidth="827" pageHeight="1169" math="0" shadow="0">
      <root>
        <mxCell id="0" />
        <mxCell id="1" parent="0" />
        <mxCell id="0BL_xwl2zmjHfKS6zjT8-10" style="edgeStyle=orthogonalEdgeStyle;rounded=0;orthogonalLoop=1;jettySize=auto;html=1;exitX=0.5;exitY=1;exitDx=0;exitDy=0;exitPerimeter=0;entryX=0.5;entryY=0;entryDx=0;entryDy=0;dashed=1;strokeWidth=1;" edge="1" parent="1" source="0BL_xwl2zmjHfKS6zjT8-1" target="0BL_xwl2zmjHfKS6zjT8-5">
          <mxGeometry relative="1" as="geometry" />
        </mxCell>
        <mxCell id="0BL_xwl2zmjHfKS6zjT8-1" value="" style="shape=cylinder3;whiteSpace=wrap;html=1;boundedLbl=1;backgroundOutline=1;size=15;" vertex="1" parent="1">
          <mxGeometry x="160" y="140" width="190" height="80" as="geometry" />
        </mxCell>
        <mxCell id="0BL_xwl2zmjHfKS6zjT8-16" style="edgeStyle=orthogonalEdgeStyle;rounded=0;orthogonalLoop=1;jettySize=auto;html=1;exitX=0.5;exitY=1;exitDx=0;exitDy=0;entryX=0.25;entryY=0;entryDx=0;entryDy=0;dashed=1;exitPerimeter=0;" edge="1" parent="1" source="0BL_xwl2zmjHfKS6zjT8-1" target="0BL_xwl2zmjHfKS6zjT8-7">
          <mxGeometry relative="1" as="geometry">
            <Array as="points">
              <mxPoint x="255" y="290" />
              <mxPoint x="556" y="290" />
            </Array>
          </mxGeometry>
        </mxCell>
        <mxCell id="0BL_xwl2zmjHfKS6zjT8-2" value="&lt;font style=&quot;font-size: 20px;&quot;&gt;Bază de date&lt;/font&gt;" style="text;html=1;align=center;verticalAlign=middle;whiteSpace=wrap;rounded=0;" vertex="1" parent="1">
          <mxGeometry x="192.5" y="180" width="125" height="30" as="geometry" />
        </mxCell>
        <mxCell id="0BL_xwl2zmjHfKS6zjT8-13" style="edgeStyle=orthogonalEdgeStyle;rounded=0;orthogonalLoop=1;jettySize=auto;html=1;exitX=0.5;exitY=1;exitDx=0;exitDy=0;exitPerimeter=0;entryX=0.5;entryY=0;entryDx=0;entryDy=0;dashed=1;" edge="1" parent="1" source="0BL_xwl2zmjHfKS6zjT8-3" target="0BL_xwl2zmjHfKS6zjT8-7">
          <mxGeometry relative="1" as="geometry" />
        </mxCell>
        <mxCell id="0BL_xwl2zmjHfKS6zjT8-3" value="" style="shape=cylinder3;whiteSpace=wrap;html=1;boundedLbl=1;backgroundOutline=1;size=15;" vertex="1" parent="1">
          <mxGeometry x="501.25" y="140" width="190" height="80" as="geometry" />
        </mxCell>
        <mxCell id="0BL_xwl2zmjHfKS6zjT8-15" style="edgeStyle=orthogonalEdgeStyle;rounded=0;orthogonalLoop=1;jettySize=auto;html=1;entryX=0.75;entryY=0;entryDx=0;entryDy=0;dashed=1;" edge="1" parent="1" target="0BL_xwl2zmjHfKS6zjT8-5">
          <mxGeometry relative="1" as="geometry">
            <mxPoint x="596" y="220" as="sourcePoint" />
            <Array as="points">
              <mxPoint x="596" y="260" />
              <mxPoint x="296" y="260" />
            </Array>
          </mxGeometry>
        </mxCell>
        <mxCell id="0BL_xwl2zmjHfKS6zjT8-4" value="&lt;font style=&quot;font-size: 20px;&quot;&gt;Configurare&lt;/font&gt;" style="text;html=1;align=center;verticalAlign=middle;whiteSpace=wrap;rounded=0;" vertex="1" parent="1">
          <mxGeometry x="533.75" y="180" width="125" height="30" as="geometry" />
        </mxCell>
        <mxCell id="0BL_xwl2zmjHfKS6zjT8-5" value="" style="rounded=1;whiteSpace=wrap;html=1;" vertex="1" parent="1">
          <mxGeometry x="174" y="332.5" width="162" height="57.5" as="geometry" />
        </mxCell>
        <mxCell id="0BL_xwl2zmjHfKS6zjT8-17" style="edgeStyle=orthogonalEdgeStyle;rounded=0;orthogonalLoop=1;jettySize=auto;html=1;strokeWidth=2;" edge="1" parent="1" source="0BL_xwl2zmjHfKS6zjT8-6" target="0BL_xwl2zmjHfKS6zjT8-8">
          <mxGeometry relative="1" as="geometry" />
        </mxCell>
        <mxCell id="0BL_xwl2zmjHfKS6zjT8-6" value="&lt;span style=&quot;font-size: 20px;&quot;&gt;Detector&lt;/span&gt;" style="text;html=1;align=center;verticalAlign=middle;whiteSpace=wrap;rounded=0;" vertex="1" parent="1">
          <mxGeometry x="171.5" y="350" width="164.5" height="25" as="geometry" />
        </mxCell>
        <mxCell id="0BL_xwl2zmjHfKS6zjT8-7" value="" style="rounded=1;whiteSpace=wrap;html=1;" vertex="1" parent="1">
          <mxGeometry x="515.25" y="332.5" width="162" height="60" as="geometry" />
        </mxCell>
        <mxCell id="0BL_xwl2zmjHfKS6zjT8-8" value="&lt;font style=&quot;font-size: 20px;&quot;&gt;Contramăsură&lt;/font&gt;" style="text;html=1;align=center;verticalAlign=middle;whiteSpace=wrap;rounded=0;" vertex="1" parent="1">
          <mxGeometry x="512.75" y="350" width="164.5" height="25" as="geometry" />
        </mxCell>
        <mxCell id="0BL_xwl2zmjHfKS6zjT8-18" value="&lt;font style=&quot;font-size: 20px;&quot;&gt;Alarme&lt;/font&gt;" style="text;html=1;align=center;verticalAlign=middle;whiteSpace=wrap;rounded=0;" vertex="1" parent="1">
          <mxGeometry x="400" y="332.5" width="60" height="30" as="geometry" />
        </mxCell>
        <mxCell id="0BL_xwl2zmjHfKS6zjT8-20" value="" style="shape=flexArrow;endArrow=classic;html=1;rounded=0;exitX=0.25;exitY=1;exitDx=0;exitDy=0;entryX=0.075;entryY=0;entryDx=0;entryDy=0;entryPerimeter=0;fillColor=#bac8d3;strokeColor=#23445d;" edge="1" parent="1" source="0BL_xwl2zmjHfKS6zjT8-5" target="0BL_xwl2zmjHfKS6zjT8-21">
          <mxGeometry width="50" height="50" relative="1" as="geometry">
            <mxPoint x="280" y="500" as="sourcePoint" />
            <mxPoint x="210" y="480" as="targetPoint" />
          </mxGeometry>
        </mxCell>
        <mxCell id="0BL_xwl2zmjHfKS6zjT8-21" value="" style="rounded=1;whiteSpace=wrap;html=1;" vertex="1" parent="1">
          <mxGeometry x="176.5" y="480" width="503.5" height="60" as="geometry" />
        </mxCell>
        <mxCell id="0BL_xwl2zmjHfKS6zjT8-22" value="&lt;font style=&quot;font-size: 20px;&quot;&gt;Sistem informatic&lt;/font&gt;" style="text;html=1;align=center;verticalAlign=middle;whiteSpace=wrap;rounded=0;" vertex="1" parent="1">
          <mxGeometry x="174" y="497.5" width="506" height="25" as="geometry" />
        </mxCell>
        <mxCell id="0BL_xwl2zmjHfKS6zjT8-25" value="" style="shape=singleArrow;direction=north;whiteSpace=wrap;html=1;arrowWidth=0.3809253250374792;arrowSize=0.42941149543313484;fillColor=#bac8d3;strokeColor=#23445d;" vertex="1" parent="1">
          <mxGeometry x="250" y="390" width="60" height="90" as="geometry" />
        </mxCell>
        <mxCell id="0BL_xwl2zmjHfKS6zjT8-27" style="edgeStyle=orthogonalEdgeStyle;rounded=0;orthogonalLoop=1;jettySize=auto;html=1;exitX=0.5;exitY=1;exitDx=0;exitDy=0;" edge="1" parent="1" source="0BL_xwl2zmjHfKS6zjT8-7">
          <mxGeometry relative="1" as="geometry">
            <mxPoint x="596" y="480" as="targetPoint" />
          </mxGeometry>
        </mxCell>
        <mxCell id="0BL_xwl2zmjHfKS6zjT8-28" value="&lt;font style=&quot;font-size: 20px;&quot;&gt;Acțiuni&lt;/font&gt;" style="text;html=1;align=center;verticalAlign=middle;whiteSpace=wrap;rounded=0;" vertex="1" parent="1">
          <mxGeometry x="530" y="430" width="60" height="30" as="geometry" />
        </mxCell>
        <mxCell id="0BL_xwl2zmjHfKS6zjT8-29" value="&lt;font style=&quot;font-size: 20px;&quot;&gt;Date audit&lt;/font&gt;" style="text;html=1;align=center;verticalAlign=middle;whiteSpace=wrap;rounded=0;" vertex="1" parent="1">
          <mxGeometry x="300" y="430" width="110" height="30" as="geometry" />
        </mxCell>
        <mxCell id="0BL_xwl2zmjHfKS6zjT8-30" value="&lt;font style=&quot;font-size: 20px;&quot;&gt;Solicitări&lt;/font&gt;" style="text;html=1;align=center;verticalAlign=middle;whiteSpace=wrap;rounded=0;" vertex="1" parent="1">
          <mxGeometry x="120" y="430" width="60" height="30" as="geometry" />
        </mxCell>
        <mxCell id="0BL_xwl2zmjHfKS6zjT8-31" value="&lt;font style=&quot;font-size: 16px;&quot;&gt;NOTĂ: Grosimea săgeții reprezintă cantitatea de informații care curge de la o componentă la alta.&lt;/font&gt;" style="text;html=1;align=center;verticalAlign=middle;whiteSpace=wrap;rounded=0;" vertex="1" parent="1">
          <mxGeometry x="59" y="570" width="710" height="30" as="geometry" />
        </mxCell>
      </root>
    </mxGraphModel>
  </diagram>
</mxfile>
